<?xml version="1.0" encoding="iso-8859-1"?>
<!-- Generator: Adobe Illustrator 16.0.0, SVG Export Plug-In . SVG Version: 6.00 Build 0)  -->
<!DOCTYPE svg PUBLIC "-//W3C//DTD SVG 1.1//EN" "http://www.w3.org/Graphics/SVG/1.1/DTD/svg11.dtd">
<svg version="1.1" id="Capa_1" xmlns="http://www.w3.org/2000/svg" xmlns:xlink="http://www.w3.org/1999/xlink" x="0px" y="0px"
	 width="122.5px" height="122.5px" viewBox="0 0 122.5 122.5" style="enable-background:new 0 0 122.5 122.5;" xml:space="preserve"
	>
<g>
	<g>
		<path d="M90.576,89.826c-8.02-46.672,3.087-69.634,5.574-74.036c0.479-0.546,1.23-1.111,1.23-1.691
			c0-4.904-16.64-8.399-36.55-8.399s-36.05,3.761-36.05,8.399c0,0.737,0.41,1.451,1.176,2.132
			c2.136,3.662,13.806,26.391,5.842,73.604C12.85,92.276,0,97.001,0,102.432c0,7.937,27.422,14.368,61.25,14.368
			s61.25-6.433,61.25-14.368C122.5,96.991,109.592,92.262,90.576,89.826z M33.807,19.655c6.605,1.743,16.261,2.844,27.024,2.844
			c10.958,0,20.767-1.142,27.378-2.939c-3.764,9.689-8.456,28.774-4.898,59.263c-20.457,6.652-38.479,1.902-44.278-0.016
			C42.506,48.083,37.579,29.067,33.807,19.655z M36.239,96.694c0.828-4.243,1.52-8.323,2.067-12.217
			c4.367,1.381,12.592,3.428,22.964,3.428c6.828,0,14.585-0.891,22.78-3.438c0.558,3.884,1.255,7.943,2.091,12.173
			C64.771,102.925,45.129,99.141,36.239,96.694z"/>
		<path d="M45.818,78.93c2.573,0.827,4.921,1.202,6.935,1.319c1.466-28.214-2.222-48.673-4.113-56.856
			c-1.143-0.099-2.289-0.202-3.442-0.312c-1.294-0.122-2.622-0.246-3.948-0.415C42.576,27.861,47.267,48.857,45.818,78.93z"/>
		<path d="M76.217,78.791c-1.447-30.072,3.243-51.068,4.569-56.264c-1.326,0.169-2.654,0.293-3.948,0.415
			c-1.152,0.109-2.299,0.213-3.441,0.312c-1.892,8.184-5.58,28.643-4.113,56.856C71.296,79.993,73.645,79.618,76.217,78.791z"/>
		<rect x="57.75" y="24.249" width="7" height="56.314"/>
		<polygon points="45.947,87.717 44.072,90.411 41.25,90.281 42.701,93.026 41.511,96.182 44.283,95.186 46.37,97.266 
			46.631,93.901 49.111,92.034 46.501,90.954 		"/>
		<polygon points="78.35,90.411 76.475,87.717 75.92,90.954 73.311,92.034 75.791,93.901 76.053,97.266 78.139,95.186 
			80.912,96.182 79.721,93.026 81.173,90.281 		"/>
		<polygon points="62.307,92.487 60.899,89.639 59.493,92.487 56.349,92.944 58.624,95.163 58.087,98.295 60.899,96.815 
			63.711,98.295 63.175,95.163 65.45,92.944 		"/>
	</g>
</g>
<g>
</g>
<g>
</g>
<g>
</g>
<g>
</g>
<g>
</g>
<g>
</g>
<g>
</g>
<g>
</g>
<g>
</g>
<g>
</g>
<g>
</g>
<g>
</g>
<g>
</g>
<g>
</g>
<g>
</g>
</svg>
